<?xml version="1.0" standalone="no"?>
<!DOCTYPE svg PUBLIC "-//W3C//DTD SVG 20010904//EN"
 "http://www.w3.org/TR/2001/REC-SVG-20010904/DTD/svg10.dtd">
<svg version="1.0" xmlns="http://www.w3.org/2000/svg"
 width="628.000000pt" height="628.000000pt" viewBox="0 0 628.000000 628.000000"
 preserveAspectRatio="xMidYMid meet">
<metadata>
Created by potrace 1.14, written by Peter Selinger 2001-2017
</metadata>
<g transform="translate(0.000000,628.000000) scale(0.100000,-0.100000)"
fill="#000000" stroke="none">
<path d="M0 5860 l0 -50 154 1 c168 0 164 -1 191 62 l15 37 -180 0 -180 0 0
-50z"/>
<path d="M981 5756 c-6 -7 -9 -20 -6 -28 5 -12 -1 -14 -26 -10 -22 3 -30 1
-25 -7 4 -6 15 -11 25 -11 26 0 64 -56 52 -78 -9 -16 -10 -16 -16 1 -5 10 -18
17 -35 17 -33 0 -39 -6 -42 -49 l-2 -31 -291 0 c-276 0 -355 -6 -377 -28 -5
-5 -12 -28 -15 -50 -5 -37 -3 -42 18 -47 13 -3 324 -4 691 -3 366 2 664 0 662
-4 -2 -3 -19 -10 -37 -13 -17 -4 -34 -11 -37 -15 -3 -4 -29 -19 -58 -34 l-54
-27 -441 0 c-350 1 -445 -2 -462 -13 -11 -7 -54 -16 -95 -20 -112 -10 -234
-72 -334 -169 l-76 -74 0 -319 0 -319 42 75 c74 135 42 120 249 120 l181 0
-59 -64 c-33 -35 -105 -131 -160 -214 -55 -83 -104 -148 -108 -144 -5 4 -5 1
-1 -6 4 -7 -6 -31 -23 -57 -17 -25 -29 -51 -27 -58 1 -6 1 -9 -1 -4 -8 13 -33
7 -27 -6 6 -18 -22 -42 -31 -27 -4 6 -1 9 6 8 6 -2 14 4 17 12 2 8 1 12 -3 8
-5 -4 -15 -2 -23 5 -13 9 -14 9 -8 0 4 -8 2 -13 -8 -13 -12 0 -15 -32 -16
-221 l-1 -220 30 34 c101 114 331 146 480 66 58 -30 134 -106 164 -164 19 -38
37 -133 37 -197 l0 -48 -149 0 -150 0 -20 29 c-17 23 -21 44 -21 108 0 92 -14
127 -53 131 -32 4 -37 -20 -11 -49 14 -15 15 -58 14 -334 -1 -297 0 -316 17
-313 31 6 43 48 43 156 l0 102 143 0 143 0 23 -31 c22 -30 23 -38 17 -124 -3
-51 -11 -107 -18 -126 l-11 -32 -23 26 c-23 27 -23 27 -34 6 -40 -74 -133
-139 -230 -160 -27 -6 -50 -15 -50 -20 0 -5 4 -9 9 -9 5 0 12 -7 15 -16 5 -13
-2 -15 -52 -9 -65 7 -114 24 -107 36 3 4 -22 18 -55 30 -43 15 -72 35 -105 70
l-45 48 0 -685 c0 -583 2 -689 15 -717 15 -33 47 -78 123 -177 23 -30 46 -59
50 -65 151 -204 177 -234 232 -277 l35 -27 -49 1 c-45 1 -55 6 -105 52 -92 83
-158 159 -201 231 -13 22 -32 50 -43 62 -10 12 -16 26 -13 32 4 6 1 9 -7 5 -8
-3 -18 5 -25 18 -8 18 -11 -3 -11 -101 l-1 -123 53 -72 c29 -39 64 -87 77
-106 l24 -35 -28 25 c-15 13 -45 48 -68 77 -22 29 -44 53 -49 53 -5 0 -9 -133
-9 -297 l0 -298 35 -47 35 -48 1198 -1 c1335 -1 1418 -2 1426 -10 3 -3 -7 -5
-24 -4 -16 1 -30 -1 -30 -5 0 -3 -13 -6 -29 -5 -17 0 -27 4 -23 10 3 6 0 5 -9
-1 -8 -6 -47 -10 -86 -10 -40 1 -73 -2 -73 -6 0 -3 -9 -4 -20 -1 -12 3 -20 0
-20 -6 0 -7 6 -9 13 -5 6 4 8 3 4 -1 -4 -5 -15 -10 -23 -11 -9 -1 -13 0 -10 3
3 4 1 12 -5 19 -9 11 -16 11 -39 -1 -15 -8 -31 -11 -36 -7 -5 4 -5 3 -1 -3 11
-13 30 -13 39 0 5 6 8 5 8 -3 0 -8 5 -10 13 -6 6 4 3 -2 -7 -14 -20 -23 -32
-30 -21 -12 11 18 -7 10 -26 -11 -23 -27 -15 -43 14 -27 19 10 20 9 9 -4 -10
-13 -9 -15 13 -13 14 2 25 -2 25 -8 0 -9 2 -9 8 0 6 10 14 9 34 -1 14 -8 31
-10 38 -6 15 9 52 1 45 -10 -2 -4 14 -4 36 0 34 6 39 5 34 -8 -4 -11 -2 -12 7
-6 14 10 70 11 133 1 40 -6 113 -12 335 -24 197 -11 1228 -2 1365 12 22 2 105
7 185 10 80 4 149 11 155 16 14 14 37 11 29 -3 -4 -7 2 -5 13 5 18 16 21 16
33 2 12 -14 15 -14 33 2 11 10 17 12 13 6 -4 -7 -5 -13 -1 -13 3 0 10 10 15
23 8 20 9 21 10 2 l1 -20 8 20 c5 11 4 25 -1 32 -6 7 -5 14 3 19 8 5 9 3 4 -6
-5 -8 -4 -11 3 -6 7 4 9 -3 7 -21 -2 -16 -2 -22 1 -15 3 6 11 9 17 5 7 -3 9
-3 5 2 -4 4 -2 15 4 23 13 15 21 49 10 37 -4 -4 -8 -11 -8 -16 -3 -22 -5 -23
-12 -12 -4 6 -14 13 -22 15 -8 2 -21 10 -27 18 -11 13 -12 12 -7 -5 6 -20 5
-20 -10 -1 -12 15 -16 16 -16 5 0 -12 -2 -12 -10 1 -9 13 -10 13 -10 0 0 -13
-1 -13 -10 0 -9 13 -10 13 -10 0 0 -13 -1 -13 -10 0 -9 13 -10 13 -10 0 0 -9
-3 -11 -8 -5 -6 9 -65 13 -74 5 -8 -6 -37 -7 -34 -1 3 4 -6 7 -19 7 -13 0 -22
-3 -19 -7 2 -4 -3 -6 -12 -5 -8 1 -20 9 -25 17 -7 12 -9 12 -9 -1 0 -10 -3
-11 -8 -4 -4 7 -32 12 -62 12 -30 0 -64 2 -75 5 -11 2 -23 -1 -27 -7 -5 -7 -8
-7 -8 3 0 10 -3 11 -14 2 -11 -9 -16 -9 -22 0 -5 8 -3 9 6 4 8 -5 11 -4 7 3
-6 8 -35 10 -44 2 -9 -7 -30 -5 -42 4 -12 9 -13 8 -6 -3 6 -11 5 -12 -6 -5 -8
5 -21 9 -29 9 -8 0 -21 4 -27 8 -7 5 -13 5 -13 0 0 -4 -23 -9 -50 -9 -31 -1
-50 3 -50 10 0 6 -4 5 -9 -3 -8 -13 -12 -13 -27 0 -10 8 -15 10 -12 4 4 -6
-13 -10 -42 -10 -26 0 -46 3 -44 6 1 3 -12 6 -31 6 -22 0 -32 -4 -28 -11 4 -6
0 -5 -8 1 -12 10 -18 10 -29 0 -10 -9 -11 -9 -6 1 8 13 -19 13 -40 -1 -6 -3
-14 -3 -18 1 -4 4 -49 8 -99 9 -51 1 -141 4 -202 5 -60 2 509 5 1265 8 l1375
5 45 83 c36 66 49 82 67 82 23 0 23 0 23 158 l0 157 -102 -1 c-57 0 -76 1 -43
2 33 2 79 6 103 10 l42 5 0 340 0 339 -177 2 -178 2 175 7 c96 3 176 7 178 8
1 0 2 13 2 27 l0 26 -82 -6 c-79 -6 -798 -26 -940 -26 -45 0 -68 4 -68 12 0 6
3 8 7 5 3 -4 12 -2 18 3 8 7 208 13 539 17 l526 6 0 33 c0 31 -2 33 -42 37
l-43 4 43 1 c40 2 42 4 42 32 l0 29 -82 4 -83 3 83 2 82 2 0 30 0 29 -122 4
-123 3 123 2 122 2 0 30 0 30 -129 0 c-76 0 -132 4 -136 10 -4 6 42 10 129 10
l136 0 0 30 0 29 -147 4 -148 3 148 2 147 2 0 26 0 26 -232 -6 c-449 -12 -806
-12 -818 0 -9 9 124 14 519 19 l531 8 0 34 0 33 -307 -6 c-170 -4 -315 -8
-323 -10 -8 -1 -122 -3 -252 -3 l-237 -1 -15 -27 -15 -28 -1 28 c0 20 -5 27
-19 27 -17 0 -18 -8 -15 -117 2 -65 6 -157 9 -205 3 -52 2 -88 -4 -88 -11 0
-18 39 -27 153 -5 70 -10 87 -23 88 -9 1 -110 1 -226 1 -143 -1 -197 2 -170 8
22 5 67 9 100 10 93 1 52 14 -175 55 -113 20 -236 45 -275 56 -89 24 -175 59
-175 70 0 22 262 4 533 -36 223 -33 215 -34 255 21 l34 46 151 -6 c84 -3 383
-9 665 -12 l512 -6 0 60 0 59 -337 6 c-186 4 -412 11 -503 16 -91 6 -356 10
-590 11 -402 1 -512 5 -810 29 -163 14 -195 20 -182 33 11 11 1192 17 1512 6
l205 -6 -250 17 c-146 10 -240 20 -225 24 14 4 66 6 115 3 234 -11 511 -36
400 -36 -16 0 -26 -2 -23 -6 3 -3 102 -9 219 -14 191 -9 314 -19 432 -36 l37
-6 0 611 0 611 -40 0 c-47 0 -99 -19 -119 -44 -13 -15 -13 -21 1 -44 13 -22
14 -45 7 -132 -4 -58 -8 -197 -8 -310 -1 -193 -2 -203 -18 -181 l-16 24 -159
-7 -158 -6 0 525 0 525 157 0 157 0 22 -27 22 -27 34 26 c19 14 53 32 76 39
l42 12 0 288 c0 312 3 289 -55 387 -6 9 -23 38 -38 64 -18 29 -26 55 -23 71 3
20 1 25 -12 21 -9 -3 -7 1 6 7 28 15 37 7 22 -22 -10 -18 -10 -24 2 -33 8 -6
31 -39 52 -73 22 -35 40 -63 42 -63 2 0 4 212 4 470 l0 470 -54 0 c-38 0 -61
-6 -77 -19 -27 -22 -26 -26 40 -181 56 -131 54 -148 -17 -237 -31 -40 -65 -75
-75 -78 -10 -4 -35 4 -60 18 -23 14 -61 30 -84 37 -23 7 -42 16 -41 19 2 22
-4 40 -17 45 -24 9 -47 -5 -42 -25 3 -12 0 -19 -9 -19 -9 0 -14 11 -14 28 0
16 -9 55 -21 88 -12 32 -21 65 -22 72 -1 29 -24 0 -72 -94 -29 -54 -54 -105
-56 -112 -3 -8 -24 -14 -57 -15 -28 -1 -52 0 -52 2 0 12 136 241 155 260 20
21 26 22 40 11 8 -7 18 -11 21 -8 3 3 -16 24 -42 47 l-47 41 -316 1 c-174 1
-469 3 -656 5 l-340 3 -38 41 c-21 22 -44 40 -52 40 -7 0 -16 3 -18 8 -3 4
319 6 714 4 708 -2 720 -3 740 -23 15 -15 30 -19 66 -17 59 4 73 23 50 71 -21
43 -21 51 -1 72 9 9 13 19 9 23 -5 5 -825 12 -1507 12 -14 0 -15 5 -6 33 13
41 29 115 31 147 l2 25 -1681 3 c-1418 2 -1683 0 -1693 -12z m1382 -83 c-29
-2 -78 -2 -110 0 -32 2 -8 3 52 3 61 0 87 -1 58 -3z m255 0 c-10 -2 -26 -2
-35 0 -10 3 -2 5 17 5 19 0 27 -2 18 -5z m-545 -20 c-7 -2 -19 -2 -25 0 -7 3
-2 5 12 5 14 0 19 -2 13 -5z m2116 -9 c2 -2 -4 -13 -14 -23 -17 -19 -31 -20
-442 -17 -263 2 -427 6 -431 12 -4 6 -24 10 -44 9 -21 -1 -36 0 -34 3 3 2 7 3
10 3 3 0 20 6 38 14 27 11 113 12 473 8 242 -3 442 -7 444 -9z m-3062 -30 c-3
-3 -12 -4 -19 -1 -8 3 -5 6 6 6 11 1 17 -2 13 -5z m-7 -26 c0 -10 -18 -9 -45
2 -16 6 -14 8 13 7 17 0 32 -4 32 -9z m2220 -46 l25 -17 -60 -6 c-48 -4 -52
-6 -20 -8 56 -2 199 -26 214 -35 9 -6 9 -11 1 -21 -8 -9 -28 -11 -68 -8 -111
10 -334 -33 -436 -84 -61 -30 -106 -70 -106 -94 0 -9 -7 -22 -15 -29 -30 -25
-135 59 -135 109 0 49 -346 130 -443 103 -26 -7 -40 -7 -53 3 -16 11 -16 13 7
28 30 18 284 41 358 31 35 -4 51 -3 51 5 0 8 52 11 178 11 172 0 284 11 308
31 7 5 31 13 55 18 46 8 89 -3 139 -37z m496 -94 c4 -7 4 -10 0 -7 -4 4 -38
-10 -77 -31 l-69 -39 -15 29 c-8 16 -15 34 -15 39 0 6 30 12 68 14 37 2 75 4
84 5 9 1 20 -4 24 -10z m-1199 -115 c28 -7 69 -27 90 -42 48 -35 109 -124 128
-188 17 -55 20 -199 5 -238 l-10 -27 -20 24 -19 23 -23 -26 c-13 -15 -38 -36
-56 -49 l-33 -22 30 -19 c52 -32 119 -127 132 -188 14 -70 7 -353 -11 -400
l-13 -34 -20 27 -19 27 -39 -45 c-49 -55 -121 -90 -216 -105 -39 -6 -75 -11
-79 -11 -4 0 1 -9 11 -20 10 -11 15 -23 12 -26 -3 -4 -39 -2 -79 4 -53 8 -78
17 -90 32 -9 12 -45 35 -80 53 -70 36 -120 92 -140 160 -8 26 -13 99 -13 197
1 192 15 249 76 304 l40 37 -32 36 c-53 61 -64 96 -62 208 1 138 39 220 128
275 91 56 268 71 402 33z m849 -4 c74 -28 112 -56 166 -123 82 -103 83 -109
81 -511 -3 -337 -11 -464 -34 -508 -11 -20 -12 -20 -30 4 l-18 24 -17 -25
c-49 -71 -162 -140 -229 -140 -12 0 -37 -3 -54 -6 l-32 -7 22 -23 22 -24 -24
0 c-75 0 -181 34 -163 53 3 2 -22 17 -55 32 -92 43 -151 128 -171 246 -12 75
-4 552 11 704 16 157 62 236 171 291 92 47 248 52 354 13z m567 -28 c24 -40
23 -182 -3 -312 -11 -56 -21 -104 -24 -106 -2 -3 -12 7 -21 21 -16 24 -19 25
-95 19 -91 -7 -78 -22 -105 126 -8 46 -15 128 -15 182 l0 99 123 0 123 0 17
-29z m-3121 -178 c-26 -2 -110 -8 -187 -14 -200 -16 -385 -20 -385 -9 0 5 11
16 23 25 20 13 67 15 296 14 150 0 276 2 279 5 3 4 9 1 14 -6 5 -10 -5 -14
-40 -15z m3657 -24 c70 -24 114 -59 158 -125 38 -58 52 -107 53 -193 l0 -54
-23 21 c-22 20 -33 22 -159 22 l-135 0 -5 70 c-6 77 -18 100 -55 100 -30 0
-41 -26 -23 -54 8 -12 13 -42 12 -72 -4 -62 -2 -63 143 -140 123 -66 188 -123
225 -199 22 -45 25 -62 24 -165 0 -69 -5 -127 -13 -145 l-12 -30 -19 25 -19
25 -30 -36 c-39 -47 -131 -88 -216 -96 -36 -3 -68 -10 -71 -14 -3 -5 -1 -9 4
-9 6 0 13 -7 16 -16 6 -14 -1 -15 -51 -9 -60 7 -108 29 -98 45 4 6 -1 7 -11 3
-11 -4 -15 -2 -11 4 4 6 -13 18 -39 28 -93 36 -135 108 -142 248 l-5 97 141 0
141 0 20 -29 c16 -22 21 -44 21 -95 0 -63 1 -66 25 -66 31 0 45 26 45 84 0 77
-13 91 -153 174 -197 115 -237 169 -237 318 0 155 38 229 141 274 96 41 253
45 358 9z m-4384 -167 c-28 -6 -45 7 -45 35 l0 27 31 -30 c24 -23 27 -30 14
-32z m490 -201 c-19 -18 -275 -18 -275 -1 0 6 54 10 142 10 86 0 138 -4 133
-9z m5415 0 c-8 -6 -18 -7 -24 -4 -5 3 -6 1 -2 -5 3 -6 15 -9 24 -7 13 2 18
-3 17 -16 -1 -10 -5 -22 -10 -26 -4 -5 -6 -3 -2 2 3 6 2 17 -4 25 -7 13 -9 13
-9 0 0 -13 -1 -13 -10 0 -8 13 -10 13 -10 -2 0 -9 -4 -20 -10 -23 -6 -4 -7 2
-1 17 4 13 6 29 4 36 -3 8 5 12 24 12 21 0 24 -3 13 -9z m94 -6 c-4 -8 -9 -15
-13 -15 -4 0 -8 7 -8 15 0 8 6 15 13 15 8 0 11 -6 8 -15z m-156 -41 c-12 -12
-17 -13 -23 -3 -5 8 -4 10 4 5 6 -4 14 0 17 9 4 9 9 13 12 10 3 -3 -1 -13 -10
-21z m102 -24 c0 -5 -5 -10 -11 -10 -5 0 -7 5 -4 10 3 6 8 10 11 10 2 0 4 -4
4 -10z m-2009 -626 c80 -23 141 -67 183 -129 43 -65 56 -114 56 -220 0 -80 0
-80 -19 -56 l-19 24 -151 -6 -151 -7 0 73 c0 89 -15 122 -54 122 -39 0 -56
-27 -33 -53 13 -14 17 -37 17 -90 0 -48 5 -75 14 -85 8 -8 61 -43 118 -77 121
-75 235 -182 266 -252 42 -97 55 -318 22 -403 l-12 -30 -17 22 -18 22 -39 -40
c-63 -65 -197 -116 -308 -119 -5 0 -3 -7 5 -16 10 -13 10 -17 -2 -25 -10 -6
-6 -9 16 -9 17 -1 66 -12 110 -25 l80 -25 -75 4 c-41 2 -115 10 -165 19 -49 9
-133 23 -185 32 -52 9 -99 18 -105 21 -12 5 156 -3 216 -11 l44 -6 -35 14
c-19 7 -34 19 -32 26 1 7 -2 10 -8 6 -5 -3 -10 -2 -10 3 0 5 -27 21 -60 36
-66 31 -103 68 -134 136 -15 35 -21 72 -24 173 l-4 127 152 0 c192 0 189 3
190 -148 0 -110 7 -125 48 -103 31 16 45 72 37 143 -9 79 -31 103 -205 221
-189 129 -230 196 -230 377 0 195 65 295 219 336 67 18 236 17 302 -2z m-2544
-66 c20 -19 23 -31 23 -104 l0 -83 -42 1 c-24 0 -95 -3 -158 -7 l-115 -7 -27
31 c-26 28 -28 38 -28 111 l0 80 162 0 c152 0 163 -1 185 -22z m3226 -49 c10
-18 17 -51 17 -80 0 -44 2 -49 23 -49 14 0 30 -12 45 -33 18 -28 22 -46 22
-113 -1 -79 -1 -79 -18 -51 -14 23 -23 27 -60 27 l-44 0 16 -24 c13 -21 16
-71 18 -338 l3 -313 27 -3 c47 -6 68 -48 68 -139 -1 -78 -1 -78 -19 -55 -18
20 -28 22 -120 22 -65 0 -102 -4 -107 -12 -4 -6 -3 -8 2 -5 6 3 16 -3 23 -15
12 -19 11 -20 -31 -13 -27 4 -51 16 -65 31 -12 13 -26 24 -32 24 -17 0 -71 51
-89 84 -15 27 -17 76 -20 394 l-4 362 -29 0 -29 0 0 79 0 80 33 3 32 3 3 83 3
82 157 0 157 0 18 -31z m-3709 -46 c13 -18 23 -47 26 -83 4 -42 9 -55 21 -55
9 0 28 -14 43 -31 27 -33 31 -57 20 -138 -7 -46 -7 -46 -45 -46 l-39 0 0 -315
0 -315 22 0 c12 0 32 -10 45 -22 21 -19 23 -30 23 -111 l0 -89 -140 4 c-138 3
-141 4 -164 31 -13 15 -30 27 -39 27 -22 0 -75 46 -95 84 -15 28 -17 66 -14
359 l3 327 -36 31 c-35 31 -35 31 -35 115 l0 84 35 0 35 0 0 80 0 79 83 4
c233 9 227 9 251 -20z m4289 -43 c120 -18 206 -80 257 -186 30 -61 39 -199 39
-579 0 -324 0 -330 -18 -307 -18 21 -26 22 -175 22 l-156 0 0 41 0 40 -34 -35
c-38 -40 -91 -66 -136 -66 l-30 0 17 -27 18 -26 -34 6 c-18 4 -45 19 -60 33
-14 14 -42 36 -61 48 -21 13 -44 40 -59 70 -23 45 -25 62 -25 180 0 142 12
190 56 226 13 10 74 43 135 72 62 29 113 56 113 60 0 4 -69 9 -152 10 l-153 3
3 85 c6 163 41 230 151 289 85 45 183 58 304 41z m-2250 -59 c43 -26 96 -101
113 -158 11 -36 14 -141 14 -481 l0 -435 -22 28 -22 28 -158 -6 -158 -6 0 412
c0 226 -3 422 -6 434 -7 25 -32 37 -58 27 -20 -8 -20 -22 -1 -44 14 -15 16
-72 15 -429 l0 -411 37 -1 c34 -2 35 -2 8 -6 -16 -3 -36 -10 -43 -16 -11 -8
-18 -6 -31 12 -16 21 -24 22 -102 19 -52 -2 -82 -7 -79 -13 3 -5 9 -9 13 -7 5
1 6 -2 2 -8 -5 -8 -11 -8 -21 1 -7 6 -11 15 -8 20 3 5 1 9 -4 9 -17 0 -22 -13
-9 -29 11 -14 10 -14 -5 -2 -10 7 -15 18 -12 23 4 6 -10 9 -32 8 -82 -4 -74
-62 -74 520 l0 520 163 0 c152 0 163 -1 175 -20 12 -20 13 -20 50 5 70 46 186
49 255 6z m-961 0 c88 -27 211 -150 239 -238 28 -92 19 -606 -11 -664 -11 -20
-12 -20 -31 -3 -19 17 -21 16 -65 -33 -53 -62 -130 -102 -208 -110 -53 -6 -84
-22 -58 -31 7 -2 12 -8 12 -14 0 -7 -25 -9 -71 -6 -55 4 -74 10 -90 27 -12 12
-44 32 -73 45 -67 30 -111 83 -136 165 -18 55 -20 92 -20 305 0 265 9 344 45
416 36 71 112 127 202 150 47 11 215 6 265 -9z m-600 -28 l28 -27 0 -471 c0
-260 -3 -493 -6 -519 l-7 -46 -156 1 c-148 1 -157 3 -181 25 l-25 23 3 515 2
515 133 4 c72 1 143 4 156 5 16 1 36 -8 53 -25z m1208 -1055 c0 -23 155 -356
177 -380 14 -16 14 -18 -8 -27 -13 -5 -18 -10 -11 -10 6 -1 12 -9 12 -20 0
-25 -16 -36 -78 -49 -64 -14 -75 -15 -68 -3 4 5 24 12 46 16 46 8 66 28 24 23
-20 -2 -29 2 -32 15 -3 13 3 17 22 17 14 0 26 3 26 6 0 7 -52 122 -74 166 -12
23 -12 26 0 21 8 -3 17 -17 21 -32 9 -38 64 -141 74 -141 5 0 -2 22 -16 50
-14 27 -25 56 -25 65 0 9 -9 34 -20 56 -29 57 -90 209 -90 225 0 8 5 14 10 14
6 0 10 -5 10 -12z m183 3 c10 -4 18 -11 18 -16 -1 -17 10 -45 18 -45 4 0 8 -6
8 -12 1 -7 6 -37 12 -67 6 -29 11 -70 11 -90 l0 -36 -20 25 c-11 14 -48 72
-81 129 -48 81 -58 105 -48 112 17 10 57 10 82 0z m976 -65 c31 -8 88 -22 126
-31 39 -10 144 -41 235 -71 91 -29 188 -57 215 -62 l50 -10 -46 -1 c-26 0 -69
5 -95 13 -199 57 -307 91 -359 111 -33 13 -81 25 -107 27 -27 2 -48 6 -48 10
0 4 -10 4 -22 1 -35 -8 -187 -10 -200 -2 -7 4 3 10 23 13 30 5 52 7 148 14 14
1 50 -4 80 -12z m-1670 -108 c-33 -44 -82 -127 -110 -182 -59 -122 -65 -110
-8 18 57 126 139 246 168 246 6 0 -16 -37 -50 -82z m-249 6 c0 -8 -58 -91
-117 -168 -56 -72 -64 -95 -35 -95 9 0 40 -5 67 -11 87 -19 223 -25 455 -20
124 3 229 2 234 -2 6 -5 -21 -9 -60 -9 l-69 -2 84 -9 c73 -8 86 -7 93 6 5 9
16 16 25 16 13 0 13 -3 3 -15 -11 -13 -8 -14 21 -10 28 5 30 4 12 -4 -33 -15
-555 -26 -579 -13 -16 10 -14 12 21 13 22 1 -14 5 -80 9 -121 7 -240 25 -264
39 -11 7 -11 13 -1 32 27 51 144 225 159 236 17 13 31 16 31 7z m717 -52 c28
-34 29 -45 3 -37 -12 4 -27 2 -34 -4 -10 -8 -15 -2 -24 28 -7 21 -12 41 -12
45 0 15 46 -7 67 -32z m-164 21 c-7 -2 -19 -2 -25 0 -7 3 -2 5 12 5 14 0 19
-2 13 -5z m90 -53 c10 -10 -3 -11 -58 -6 -38 3 -85 6 -103 6 -22 0 -31 4 -26
11 9 16 172 6 187 -11z m2 -41 c5 -5 -34 -9 -92 -9 -91 0 -136 10 -101 23 21
7 182 -5 193 -14z m623 -86 c-10 -2 -26 -2 -35 0 -10 3 -2 5 17 5 19 0 27 -2
18 -5z m-103 -19 l-40 -14 50 5 c28 2 82 7 120 9 66 5 64 4 -20 -8 -49 -7
-126 -16 -170 -19 -71 -5 -77 -5 -51 7 20 9 25 15 15 19 -8 3 5 5 28 5 23 -1
46 1 49 5 4 4 19 7 33 6 22 0 20 -3 -14 -15z m263 9 c-10 -2 -26 -2 -35 0 -10
3 -2 5 17 5 19 0 27 -2 18 -5z m-2224 -26 c22 -7 41 -17 43 -22 2 -6 -26 -29
-62 -52 -56 -35 -79 -43 -153 -53 -48 -6 -105 -17 -127 -24 -33 -9 -51 -8
-100 5 l-60 16 55 7 c148 19 142 17 195 66 27 26 59 52 70 58 26 15 89 14 139
-1z m55 -141 c-2 -2 -60 -22 -128 -45 -120 -40 -165 -50 -146 -32 18 15 150
61 180 62 17 0 39 4 50 9 20 9 52 13 44 6z m651 -27 c0 -5 -6 -9 -14 -9 -8 0
-16 -6 -19 -12 -3 -10 -9 -8 -23 4 -18 18 -19 18 26 31 18 5 30 0 30 -14z
m1845 -49 c132 -15 223 -39 253 -67 22 -20 23 -23 7 -18 -73 26 -127 39 -260
61 -82 14 -152 27 -154 30 -7 7 59 4 154 -6z m-54 -37 c9 -9 -38 -12 -202 -12
-118 0 -266 -3 -329 -5 -87 -4 -104 -3 -70 4 128 27 577 37 601 13z m1444 -50
c0 -27 4 -129 9 -228 6 -132 5 -177 -3 -169 -13 12 -30 214 -31 352 0 67 3 92
13 92 8 0 12 -16 12 -47z m-2108 21 c-3 -3 -12 -4 -19 -1 -8 3 -5 6 6 6 11 1
17 -2 13 -5z m932 -69 c70 -42 133 -110 167 -179 l25 -51 -27 35 c-50 63 -108
112 -184 156 -41 24 -79 44 -85 44 -5 0 -21 10 -35 21 l-25 21 53 -6 c36 -3
71 -16 111 -41z m-1156 28 c-7 -2 -19 -2 -25 0 -7 3 -2 5 12 5 14 0 19 -2 13
-5z m-58 -13 c-27 -12 -43 -12 -25 0 8 5 22 9 30 9 10 0 8 -3 -5 -9z m-47 -16
c-4 -3 43 -30 103 -60 60 -30 109 -58 109 -62 0 -4 -55 19 -122 51 l-122 60
-236 -53 c-129 -29 -237 -54 -240 -57 -2 -2 2 -8 10 -13 13 -8 12 -10 -3 -10
-10 0 -43 -9 -74 -20 -75 -26 -77 -25 -20 9 l48 28 -38 6 c-21 4 -60 7 -87 7
-97 0 -36 11 115 20 127 8 186 17 334 54 171 41 236 53 223 40z m1181 -40 c28
-15 59 -36 68 -48 18 -20 18 -20 -7 -3 -66 45 -107 60 -178 65 -87 6 -139 -11
-213 -70 -28 -22 -46 -32 -41 -21 18 33 59 64 118 89 79 33 179 29 253 -12z
m1625 -47 c19 -41 38 -92 42 -114 l6 -40 -53 -6 c-30 -4 -90 -7 -135 -7 l-81
0 -21 94 c-12 52 -22 106 -22 120 l0 26 114 0 115 0 35 -73z m360 31 c9 -24
22 -71 28 -106 10 -53 9 -65 -3 -73 -8 -5 -75 -9 -151 -9 l-136 0 -6 38 c-4
20 -9 72 -11 115 l-4 77 133 0 133 0 17 -42z m-4619 -73 c-5 -2 -28 -8 -50
-14 -36 -9 -38 -9 -21 4 11 8 34 15 50 14 17 0 27 -2 21 -4z m3967 -123 c2
-28 0 -52 -4 -52 -5 0 -7 33 -7 73 2 76 6 68 11 -21z m-3279 -9 c-7 -2 -21 -2
-30 0 -10 3 -4 5 12 5 17 0 24 -2 18 -5z m614 -39 c-3 -3 -12 -4 -19 -1 -8 3
-5 6 6 6 11 1 17 -2 13 -5z m-1231 -129 c9 -13 14 -28 12 -33 -1 -5 -13 6 -25
24 -12 19 -18 34 -13 34 5 0 17 -11 26 -25z m-990 -10 c17 -13 2 -14 -143 -15
-138 0 -163 2 -163 15 0 22 277 22 306 0z m549 -31 c83 -48 129 -83 91 -70
-16 6 -17 4 -6 -9 9 -11 15 -12 20 -5 9 15 64 -6 57 -23 -2 -6 -1 -39 4 -72 9
-66 7 -74 -15 -56 -12 10 -13 17 -3 32 9 14 9 21 -1 31 -11 11 -12 9 -6 -7 7
-18 6 -18 -9 -6 -9 7 -17 20 -17 29 0 13 -4 12 -22 -4 -13 -10 -17 -12 -10 -4
12 15 17 50 6 50 -4 0 -12 -7 -19 -16 -12 -18 -60 -11 -50 7 4 5 1 9 -5 9 -6
0 -8 4 -5 10 4 6 -1 7 -11 3 -13 -5 -15 -2 -10 18 3 13 3 19 0 12 -6 -13 -49
-3 -86 21 -14 9 -27 13 -31 10 -3 -4 -5 3 -2 15 3 18 1 20 -14 11 -21 -11 -56
9 -56 32 0 7 -5 13 -12 13 -6 0 -15 3 -19 8 -4 4 28 7 72 7 76 0 83 -2 159
-46z m332 0 c-6 -20 -13 -32 -14 -27 -4 11 14 63 21 63 2 0 -1 -16 -7 -36z
m4586 29 c-35 -2 -91 -2 -125 0 -35 2 -7 3 62 3 69 0 97 -1 63 -3z m-380 -10
c-34 -2 -93 -2 -130 0 -37 2 -9 3 62 3 72 0 102 -1 68 -3z m-1467 -74 c-66
-16 -145 -79 -178 -144 -49 -93 -60 -216 -33 -333 25 -105 71 -177 149 -233
23 -18 32 -29 23 -29 -22 0 -22 -19 1 -37 16 -14 16 -14 -2 -9 -45 15 -151
137 -141 164 2 7 1 11 -4 7 -11 -6 -49 90 -63 163 -15 75 3 199 42 278 51 104
149 185 220 183 18 -1 14 -3 -14 -10z m-2716 -232 c18 -38 47 -79 64 -93 l31
-25 -37 15 c-45 18 -48 9 -12 -28 32 -31 11 -36 -23 -4 -24 23 -31 11 -13 -23
17 -31 -6 -23 -31 11 -21 28 -23 42 -25 207 -1 133 0 156 5 93 6 -68 15 -100
41 -153z m-799 212 c39 -21 15 -27 -110 -28 -130 -2 -181 4 -181 19 0 18 260
26 291 9z m412 -29 c10 -12 21 -19 26 -16 4 3 8 -1 8 -8 0 -17 -53 8 -61 29
-8 21 7 18 27 -5z m4087 15 c0 -2 -10 -10 -22 -16 -21 -11 -22 -11 -9 4 13 16
31 23 31 12z m538 -2 c-26 -2 -71 -2 -100 0 -29 2 -8 3 47 3 55 0 79 -1 53 -3z
m-4125 -37 c3 -8 3 -17 0 -20 -7 -7 -33 13 -33 25 0 15 27 10 33 -5z m3537 9
c0 -8 -61 -37 -67 -32 -3 3 8 12 24 21 29 16 43 19 43 11z m-695 -15 c3 -5 1
-10 -4 -10 -6 0 -11 5 -11 10 0 6 2 10 4 10 3 0 8 -4 11 -10z m295 -30 c-74
-4 -150 -10 -167 -14 -18 -4 -33 -5 -33 -2 0 15 78 24 200 24 l135 -1 -135 -7z
m-3919 -30 c47 -26 18 -32 -123 -25 -148 8 -162 10 -153 26 8 12 252 12 276
-1z m416 -6 c-3 -3 -12 -4 -19 -1 -8 3 -5 6 6 6 11 1 17 -2 13 -5z m197 -241
c13 -21 36 -50 51 -65 14 -16 21 -28 15 -28 -16 0 -67 58 -86 98 -20 43 -44
129 -43 157 0 11 9 -12 19 -52 10 -39 30 -89 44 -110z m127 119 c-7 -2 -18 1
-23 6 -8 8 -4 9 13 5 13 -4 18 -8 10 -11z m-575 -4 c30 -14 31 -32 2 -24 -13
3 -112 6 -220 6 -171 0 -198 2 -198 15 0 13 27 15 196 15 118 -1 206 -6 220
-12z m5039 1 c-49 -4 -121 -7 -160 -6 l-70 1 70 6 c39 4 111 7 160 7 l90 0
-90 -8z m-1648 -45 c38 -29 43 -29 44 -6 0 12 3 10 10 -7 5 -14 6 -27 1 -30
-5 -3 -14 -21 -20 -40 -18 -52 -40 -71 -82 -71 -72 0 -114 62 -90 134 19 59
74 67 137 20z m1388 31 c-25 -8 -147 -12 -134 -4 8 5 43 8 79 8 36 0 61 -2 55
-4z m-4835 -105 c8 -5 2 -8 -16 -8 -16 0 -84 -2 -151 -5 -99 -4 -125 -2 -134
10 -10 12 9 14 138 12 82 0 156 -4 163 -9z m3197 -228 c12 -12 37 -36 58 -52
44 -35 41 -39 -9 -9 -40 23 -79 71 -106 131 -31 68 -23 79 9 13 16 -33 37 -70
48 -83z m2068 128 c-38 -4 -101 -7 -140 -7 l-70 1 70 6 c39 4 102 7 140 7 l70
0 -70 -7z m138 3 c-7 -2 -21 -2 -30 0 -10 3 -4 5 12 5 17 0 24 -2 18 -5z
m-900 -68 l45 -43 -116 -7 c-173 -11 -647 9 -714 31 -12 3 -20 -1 -24 -13 -45
-146 -172 -263 -286 -263 -58 0 -118 11 -118 21 0 4 15 3 32 -2 128 -36 293
67 343 215 l18 52 181 23 c263 33 306 36 457 33 l136 -3 46 -44z m525 48 c-16
-2 -40 -2 -55 0 -16 2 -3 4 27 4 30 0 43 -2 28 -4z m-1323 -13 c3 -5 -1 -10
-9 -10 -9 0 -16 5 -16 10 0 6 4 10 9 10 6 0 13 -4 16 -10z m-420 -105 c22 -19
34 -34 26 -35 -18 0 -79 41 -86 58 -8 23 20 12 60 -23z m1938 8 c-13 -2 -33
-2 -45 0 -13 2 -3 4 22 4 25 0 35 -2 23 -4z m-206 -10 c-20 -2 -52 -2 -70 0
-17 2 0 4 38 4 39 0 53 -2 32 -4z m-262 -13 c-123 -11 -443 -21 -429 -15 13 6
336 22 449 22 69 0 68 0 -20 -7z m-1329 -49 c-4 -5 -21 -7 -39 -4 -47 7 -46
13 2 13 23 0 40 -4 37 -9z m-57 -27 c10 -9 -45 -3 -59 6 -11 7 -5 8 20 4 19
-4 37 -8 39 -10z m48 -60 c-3 -3 -12 -4 -19 -1 -8 3 -5 6 6 6 11 1 17 -2 13
-5z m-164 -46 c15 -6 26 -12 23 -15 -8 -8 -81 18 -107 38 l-24 20 40 -17 c22
-9 53 -21 68 -26z m-1318 -17 c46 -10 46 -10 -1170 -15 -909 -4 -1145 -1
-1145 15 0 11 2258 11 2315 0z"/>
<path d="M2434 5146 c-3 -9 1 -28 11 -42 14 -21 15 -41 9 -129 -6 -93 -5 -105
10 -111 11 -4 24 0 34 10 22 22 30 218 10 256 -16 30 -65 40 -74 16z"/>
<path d="M2421 4636 c-10 -12 -9 -20 5 -41 15 -23 17 -49 15 -191 -2 -153 -1
-164 16 -164 10 0 24 4 31 9 17 10 31 119 32 241 0 77 -4 101 -20 128 -21 35
-58 43 -79 18z"/>
<path d="M3294 5145 c-4 -8 0 -25 8 -38 12 -18 13 -62 7 -262 -4 -132 -8 -322
-8 -423 l-1 -183 22 3 c47 6 50 33 55 461 6 444 4 457 -47 457 -18 0 -33 -6
-36 -15z"/>
<path d="M5255 3640 c-4 -6 1 -20 10 -30 14 -16 17 -36 16 -110 -2 -95 4 -105
39 -70 16 16 20 33 20 93 0 39 -6 83 -13 97 -13 27 -60 40 -72 20z"/>
<path d="M5295 3230 c-34 -35 -37 -41 -24 -56 10 -12 14 -47 14 -123 0 -100 1
-106 20 -103 11 2 23 9 27 15 7 11 12 307 5 307 -2 0 -20 -18 -42 -40z"/>
<path d="M2010 3589 c0 -7 7 -20 16 -30 13 -14 15 -61 14 -338 0 -185 3 -321
9 -321 4 0 15 7 22 17 11 13 15 80 17 314 2 163 -1 312 -6 331 -7 28 -13 34
-40 36 -20 2 -32 -1 -32 -9z"/>
<path d="M746 1473 c-6 -14 -5 -15 5 -6 7 7 10 15 7 18 -3 3 -9 -2 -12 -12z"/>
<path d="M1075 1230 c3 -5 8 -10 11 -10 2 0 4 5 4 10 0 6 -5 10 -11 10 -5 0
-7 -4 -4 -10z"/>
<path d="M4802 821 c-8 -5 10 -10 49 -15 90 -9 307 -7 313 3 12 18 -334 30
-362 12z"/>
<path d="M2266 242 c-3 -5 1 -9 9 -9 8 0 12 4 9 9 -3 4 -7 8 -9 8 -2 0 -6 -4
-9 -8z"/>
</g>
</svg>
